<?xml version="1.0" encoding="utf-8"?>
<!-- Generator: Adobe Illustrator 27.5.0, SVG Export Plug-In . SVG Version: 6.00 Build 0)  -->
<svg version="1.1" xmlns="http://www.w3.org/2000/svg" xmlns:xlink="http://www.w3.org/1999/xlink" x="0px" y="0px"
	 viewBox="0 0 1920 480" style="enable-background:new 0 0 1920 480;" xml:space="preserve">
<g id="BACKGROUND">
	<rect y="0" style="fill:#BA987D;" width="1920" height="480"/>
</g>
<g id="OBJECTS">
	<g>
		<defs>
			<rect id="SVGID_1_" y="0" width="1920" height="480"/>
		</defs>
		<clipPath id="SVGID_00000174591121826209210960000012134385744099580560_">
			<use xlink:href="#SVGID_1_"  style="overflow:visible;"/>
		</clipPath>
		
			<rect x="1813.836" y="113.441" style="clip-path:url(#SVGID_00000174591121826209210960000012134385744099580560_);fill:#7A7768;" width="106.164" height="261.195"/>
		<path style="clip-path:url(#SVGID_00000174591121826209210960000012134385744099580560_);fill:#DAC9B7;" d="M789.768,44.39
			c0,0-64.281-6.334-88.63,46.261c-24.349,52.595,37.984,122.233,106.161,96.91C875.477,162.239,867.685,59,789.768,44.39z"/>
		<g style="clip-path:url(#SVGID_00000174591121826209210960000012134385744099580560_);">
			<g>
				<path style="fill:#2B1919;" d="M817.812,60.116c-0.175,0-0.352-0.005-0.534-0.015c-6.501-0.356-8.403-6.289-8.502-9.378
					c-0.023-0.703,0.528-1.289,1.231-1.314c0.718,0.023,1.294,0.526,1.321,1.229c0.01,0.269,0.314,6.598,6.09,6.915
					c5.634,0.354,6.459-6.69,6.487-6.99c0.07-0.698,0.668-1.234,1.391-1.149c0.7,0.065,1.216,0.683,1.152,1.384
					C826.148,54.082,823.952,60.116,817.812,60.116z"/>
			</g>
			<g>
				<path style="fill:#2B1919;" d="M847.079,63.22c-10.467,0-13.039-10.193-13.064-10.298c-0.165-0.685,0.257-1.371,0.94-1.538
					c0.698-0.17,1.373,0.257,1.543,0.937c0.087,0.352,2.311,8.697,11.118,8.333c8.695-0.334,8.854-7.722,8.857-8.036
					c0.005-0.701,0.576-1.269,1.276-1.269c0.003,0,0.003,0,0.005,0c0.703,0.003,1.271,0.571,1.271,1.274
					c0,0.102-0.13,10.153-11.309,10.584C847.5,63.215,847.289,63.22,847.079,63.22z"/>
			</g>
			<g>
				<path style="fill:#2B1919;" d="M879.223,63.297c-1.583,0-2.994-0.508-4.205-1.518c-3.911-3.261-4.188-10.739-4.198-11.056
					c-0.023-0.705,0.531-1.293,1.237-1.316c0.675-0.042,1.291,0.533,1.316,1.236c0.06,1.842,0.768,7.085,3.283,9.176
					c0.94,0.783,2.064,1.067,3.393,0.86c6.608-0.999,7.044-9.679,7.059-10.048c0.03-0.703,0.631-1.246,1.329-1.221
					c0.703,0.027,1.252,0.618,1.224,1.323c-0.15,3.852-2.269,11.417-9.228,12.469C880.018,63.265,879.614,63.297,879.223,63.297z"/>
			</g>
			<g>
				<path style="fill:#2B1919;" d="M909.484,58.808c-0.655,0-1.341-0.097-2.054-0.297c-7.608-2.104-9.357-8.785-9.43-9.068
					c-0.169-0.683,0.247-1.376,0.93-1.548c0.688-0.162,1.376,0.244,1.545,0.925c0.065,0.247,1.511,5.536,7.638,7.234
					c1.309,0.359,2.398,0.234,3.33-0.394c2.164-1.458,3.047-5.312,3.204-6.673c0.085-0.701,0.733-1.189,1.416-1.122
					c0.701,0.083,1.201,0.716,1.122,1.416c-0.03,0.247-0.743,6.087-4.315,8.495C911.847,58.464,910.716,58.808,909.484,58.808z"/>
			</g>
			<g>
				<path style="fill:#2B1919;" d="M829.064,79.52c-1.59,0-3.063-0.409-4.41-1.224c-4.439-2.69-5.721-8.872-5.773-9.136
					c-0.137-0.688,0.309-1.361,0.999-1.501c0.701-0.122,1.364,0.312,1.503,1c0.01,0.052,1.124,5.359,4.602,7.458
					c1.555,0.94,3.328,1.102,5.424,0.486c8.231-2.401,8.004-7.561,8.001-7.613c-0.045-0.703,0.491-1.309,1.194-1.354
					c0.755-0.082,1.311,0.493,1.353,1.194c0.018,0.294,0.337,7.259-9.836,10.225C831.063,79.366,830.041,79.52,829.064,79.52z"/>
			</g>
			<g>
				<path style="fill:#2B1919;" d="M872.615,82.217c-0.187,0-0.377-0.003-0.568-0.01c-11.008-0.423-12.828-11.442-12.845-11.551
					c-0.107-0.696,0.369-1.346,1.064-1.453c0.678-0.102,1.346,0.364,1.458,1.062c0.057,0.369,1.541,9.051,10.422,9.39
					c8.799,0.408,9.883-8.936,9.926-9.328c0.075-0.703,0.745-1.212,1.403-1.134c0.703,0.075,1.209,0.703,1.134,1.403
					C884.173,74.674,881.102,82.217,872.615,82.217z"/>
			</g>
			<g>
				<path style="fill:#2B1919;" d="M907.548,79.517c-8.785,0-11.738-9.831-11.861-10.25c-0.194-0.678,0.192-1.383,0.87-1.58
					c0.671-0.199,1.384,0.192,1.581,0.865c0.102,0.344,2.552,8.413,9.413,8.413c0.007,0,0.015,0,0.025,0
					c6.616-0.02,7.049-7.78,7.064-8.109c0.035-0.703,0.676-1.191,1.331-1.219c0.705,0.03,1.249,0.623,1.221,1.326
					c-0.152,3.642-2.358,10.531-9.61,10.554C907.57,79.517,907.56,79.517,907.548,79.517z"/>
			</g>
			<g>
				<path style="fill:#2B1919;" d="M804.252,79.53c-0.157,0-0.316-0.005-0.479-0.015c-7.097-0.419-8.859-8.45-8.931-8.792
					c-0.144-0.688,0.296-1.364,0.984-1.508c0.693-0.152,1.364,0.297,1.513,0.982c0.057,0.264,1.443,6.466,6.583,6.77
					c1.199,0.057,2.149-0.242,2.901-0.95c1.9-1.789,1.952-5.519,1.952-5.556c0-0.705,0.57-1.276,1.276-1.276
					c0.706,0,1.276,0.571,1.276,1.276c0,0.197-0.032,4.846-2.754,7.414C807.41,78.974,805.957,79.53,804.252,79.53z"/>
			</g>
			<g>
				<path style="fill:#2B1919;" d="M813.472,96.657c-1.66,0-3.053-0.519-4.16-1.546c-2.884-2.68-2.49-7.862-2.47-8.082
					c0.057-0.703,0.635-1.198,1.376-1.166c0.7,0.058,1.224,0.673,1.166,1.376c-0.092,1.154,0.028,4.489,1.668,6.007
					c0.818,0.753,1.936,1.007,3.452,0.77c6.003-0.947,5.935-6.219,5.908-6.818c-0.033-0.703,0.508-1.301,1.209-1.336
					c0.713-0.07,1.301,0.499,1.339,1.201c0.157,2.812-1.328,8.41-8.056,9.475C814.407,96.617,813.931,96.657,813.472,96.657z"/>
			</g>
			<g>
				<path style="fill:#2B1919;" d="M858.942,98.639c-1.742,0-3.295-0.524-4.631-1.566c-3.934-3.066-4.41-9.576-4.43-9.853
					c-0.047-0.703,0.484-1.309,1.186-1.356c0.78-0.062,1.314,0.484,1.361,1.184c0.002,0.057,0.426,5.661,3.457,8.016
					c1.184,0.92,2.61,1.216,4.347,0.897c7.199-1.309,6.372-8.358,6.331-8.66c-0.089-0.695,0.402-1.339,1.1-1.431
					c0.673-0.09,1.336,0.394,1.431,1.092c0.458,3.37-0.708,10.11-8.403,11.511C860.089,98.584,859.505,98.639,858.942,98.639z"/>
			</g>
			<g>
				<path style="fill:#2B1919;" d="M892.958,101.646c-0.389,0-0.785-0.018-1.194-0.053c-8.022-0.7-9.852-7.104-9.697-10.394
					c0.03-0.704,0.66-1.277,1.334-1.214c0.703,0.033,1.246,0.625,1.216,1.329l0,0c-0.03,0.723-0.06,7.089,7.366,7.737
					c2.291,0.187,4.12-0.292,5.454-1.463c2.293-2.012,2.465-5.362,2.465-5.395c0.03-0.703,0.598-1.229,1.331-1.221
					c0.705,0.033,1.251,0.628,1.221,1.331c-0.01,0.182-0.232,4.481-3.333,7.204C897.499,100.93,895.43,101.646,892.958,101.646z"/>
			</g>
			<g>
				<path style="fill:#2B1919;" d="M829.146,111.733c-8.946,0-10.262-8.037-10.275-8.122c-0.105-0.695,0.374-1.346,1.072-1.451
					c0.685-0.102,1.343,0.372,1.451,1.07c0.05,0.306,1.109,6.546,8.909,5.9c7.705-0.656,7.197-8.333,7.172-8.66
					c-0.055-0.7,0.468-1.316,1.169-1.373c0.688-0.055,1.316,0.463,1.374,1.164c0.307,3.642-1.288,10.714-9.5,11.412
					C830.044,111.713,829.586,111.733,829.146,111.733z"/>
			</g>
			<g>
				<path style="fill:#2B1919;" d="M857.209,115.569c-2.672,0-4.838-0.812-6.444-2.418c-2.989-2.983-2.832-7.597-2.824-7.792
					c0.03-0.703,0.533-1.189,1.326-1.221c0.703,0.027,1.251,0.621,1.227,1.324c-0.002,0.037-0.11,3.714,2.084,5.895
					c1.202,1.191,2.921,1.75,5.115,1.648c7.772-0.336,8.884-7.47,8.926-7.774c0.099-0.701,0.753-1.174,1.446-1.082
					c0.698,0.1,1.182,0.748,1.082,1.446c-0.473,3.295-3.452,9.617-11.344,9.964C857.603,115.565,857.404,115.569,857.209,115.569z"
					/>
			</g>
		</g>
		<g style="clip-path:url(#SVGID_00000174591121826209210960000012134385744099580560_);">
			<g>
				<path style="fill:#FFFFFF;" d="M1106.692,481.161l-2.733-0.203c0.126-1.68,12.185-168.686-20.42-226.381
					c-13.453-23.8-38.208-35.585-67.911-32.311c-33.731,3.709-63.158,25.597-71.564,53.228
					c-16.237,53.365-7.368,203.968-7.277,205.482l-2.733,0.166c-0.091-1.519-8.989-152.615,7.39-206.445
					c8.716-28.646,39.099-51.326,73.886-55.154c30.845-3.391,56.579,8.885,70.596,33.686
					C1118.936,311.648,1107.205,474.266,1106.692,481.161z"/>
			</g>
			<g>
				<path style="fill:#FFFFFF;" d="M1090.052,481.161l-2.734-0.203c0.086-1.113,8.216-112.08-3.937-183.918
					c-6.018-35.576-25.633-48.532-41.024-53.134c-22.955-6.865-52.345,0.96-68.366,18.203
					c-28.031,30.168-23.025,217.028-22.972,218.911l-2.739,0.08c-0.222-7.74-5.087-189.871,23.704-220.858
					c16.684-17.949,47.277-26.095,71.155-18.96c16.138,4.825,36.689,18.336,42.942,55.304
					C1098.289,368.752,1090.134,480.046,1090.052,481.161z"/>
			</g>
			<g>
				<path style="fill:#FFFFFF;" d="M1076.729,481.164l-2.734-0.209c0.08-1.03,7.663-103.794-2.022-168.467
					c-4.597-30.695-17.494-50.933-36.312-56.988c-14.627-4.715-30.765,0.123-43.188,12.904
					c-25.654,26.392-22.324,210.77-22.286,212.629l-2.739,0.053c-0.15-7.638-3.381-187.386,23.062-214.592
					c13.167-13.546,30.358-18.638,45.988-13.602c11.503,3.701,31.762,16.312,38.181,59.19
					C1084.413,377.061,1076.807,480.129,1076.729,481.164z"/>
			</g>
			<g>
				<path style="fill:#FFFFFF;" d="M982.047,481.11c-0.259-7.077-5.996-173.669,25.839-207.004c3.723-3.9,7.89-5.897,12.378-5.94
					c35.301-0.393,35.817,26.954,38.433,158.066c0.329,16.539,0.693,34.753,1.161,54.795l-2.739,0.064
					c-0.468-20.045-0.832-38.261-1.161-54.806c-2.554-128.144-3.1-155.384-35.124-155.384c-0.182,0-0.361,0-0.543,0.003
					c-3.777,0.035-7.184,1.701-10.425,5.095c-31.04,32.503-25.143,203.289-25.079,205.009L982.047,481.11z"/>
			</g>
			<path style="fill:#7A7768;" d="M998.013,481.06c0,0-4.541-192.206,22.681-192.206c27.222,0,22.153,37.756,23.196,192.206H998.013
				z"/>
		</g>
		<path style="clip-path:url(#SVGID_00000174591121826209210960000012134385744099580560_);fill:#2B1919;" d="M4.412,27.005
			C-21.867,5.239-39.196,10.613-44.244,13.008c-2.382-1.962-5.79-4.491-10.307-7.261c15.394,2.548,28.021,1.826,35.967,0.746
			c7.187,4.572,32.934,18.918,66.494,13.876c39.702-5.965,40.138-8.467,47.939-7.859c0,0-21.682-25.472-53.771-25.796
			C16.792-13.541-7.59-1.979-16.799,2.938c-8.115,1.275-23.291,2.502-41.845-1.25C-48.307-0.707-37.229-5.67-29.471-9.588
			c5.509,2.448,18.999,6.03,39.458-4.022c27.366-13.445,36.921-35.689,36.921-35.689s-12.971-5.468-38.307,2.963
			c-24.05,8.003-34.401,26.482-40.017,34.079C-40.231-7.846-53.121-2.189-63.963-0.576c8.074-6.246,12.663-15.904,15.05-22.787
			c6.805-4.254,26.945-18.993,25.769-43.896c0,0-29.943,12.823-31.377,27.169c-0.959,9.597,0.88,14.407,2.204,16.549
			c-2.702,7.399-7.921,17.659-17.1,22.722c-35.37-8.485-73.667,1.901-103.309,12.07l1.05,3.053
			c28.019-9.612,63.86-19.473,97.233-12.955c4.795,2.39,7.505,7.798,8.841,11.429C-77.42,23.384-57.631,42.34-57.631,42.34
			s0,0,2.181-12.507c1.54-8.836-3.5-14.254-6.598-16.682c-0.826-2.604-2.475-6.728-5.373-10.184c0.718,0.194,1.408,0.34,2.118,0.519
			c9.927,4.949,16.398,9.796,19.894,12.778c1.511,7.99,8.682,33.775,39.414,45.186C30.615,75.044,35.65,81.714,35.65,81.714
			S35.944,53.123,4.412,27.005z"/>
		<path style="clip-path:url(#SVGID_00000174591121826209210960000012134385744099580560_);fill:#FFFFFF;" d="M747.06,340.645
			c0,0,1.116,13.452-12.183,20.136c0,0,11.734,1.523,13.413,18.444c0,0,1.001-14.891,13.185-19.29
			C761.474,359.935,751.629,359.315,747.06,340.645z"/>
		<path style="clip-path:url(#SVGID_00000174591121826209210960000012134385744099580560_);fill:#FFFFFF;" d="M35.016,445.172
			c0,0,1.116,13.452-12.183,20.136c0,0,11.735,1.523,13.413,18.444c0,0,1.001-14.891,13.185-19.29
			C49.43,464.462,39.584,463.842,35.016,445.172z"/>
		<path style="clip-path:url(#SVGID_00000174591121826209210960000012134385744099580560_);fill:#FFFFFF;" d="M1138.994,445.172
			c0,0,1.115,13.452-12.183,20.136c0,0,11.734,1.523,13.413,18.444c0,0,1.001-14.891,13.185-19.29
			C1153.408,464.462,1143.563,463.842,1138.994,445.172z"/>
		<path style="clip-path:url(#SVGID_00000174591121826209210960000012134385744099580560_);fill:#FFFFFF;" d="M1794.485,45.606
			c0,0,1.116,13.452-12.183,20.136c0,0,11.734,1.523,13.413,18.444c0,0,1.002-14.891,13.185-19.29
			C1808.899,64.896,1799.053,64.276,1794.485,45.606z"/>
		<path style="clip-path:url(#SVGID_00000174591121826209210960000012134385744099580560_);fill:#FFFFFF;" d="M478.409,32.832
			c0,0,1.116,13.452-12.183,20.136c0,0,11.734,1.523,13.413,18.444c0,0,1.001-14.891,13.185-19.29
			C492.823,52.122,482.978,51.502,478.409,32.832z"/>
		<g style="clip-path:url(#SVGID_00000174591121826209210960000012134385744099580560_);">
			<g>
				<g>
					<g>
						<path style="fill:#FFFFFF;" d="M1868.888,327.762c-1.546,0-2.806,1.261-2.806,2.809c0,1.546,1.26,2.806,2.806,2.806
							c1.548,0,2.807-1.259,2.807-2.806C1871.695,329.023,1870.436,327.762,1868.888,327.762z"/>
						<path style="fill:#FFFFFF;" d="M1875.99,325.068l-0.003-0.007c-0.133-0.361-0.349-0.694-0.624-0.959
							c-0.275-0.283-0.607-0.499-0.966-0.631c-0.314-0.124-0.781-0.266-1.661-0.306c-1.019-0.047-1.323-0.055-3.848-0.055
							c-2.563,0-2.861,0.008-3.848,0.055c-0.88,0.04-1.345,0.182-1.654,0.303c-0.366,0.135-0.698,0.352-0.964,0.627
							c-0.284,0.274-0.499,0.606-0.632,0.966c-0.122,0.316-0.267,0.782-0.307,1.661c-0.045,1.016-0.054,1.319-0.054,3.848
							c0,2.526,0.009,2.83,0.054,3.846c0.04,0.877,0.185,1.346,0.304,1.658c0.136,0.365,0.351,0.695,0.626,0.963
							c0.277,0.286,0.599,0.494,0.966,0.631c0.314,0.122,0.781,0.265,1.662,0.306c0.986,0.046,1.283,0.055,3.847,0.055
							c2.565,0,2.862-0.009,3.848-0.055c0.88-0.041,1.347-0.184,1.656-0.305c0.733-0.283,1.315-0.864,1.597-1.595
							c0.121-0.312,0.264-0.78,0.305-1.658c0.044-1,0.055-1.3,0.055-3.846c0-2.549-0.01-2.847-0.055-3.848
							C1876.253,325.844,1876.109,325.378,1875.99,325.068z M1868.888,335.864c-2.919,0-5.293-2.375-5.293-5.294
							c0-2.919,2.375-5.295,5.293-5.295c2.92,0,5.295,2.376,5.295,5.295C1874.183,333.489,1871.808,335.864,1868.888,335.864z
							 M1873.993,326.993c-0.843,0-1.529-0.686-1.529-1.529c0-0.844,0.686-1.53,1.529-1.53c0.845,0,1.531,0.686,1.531,1.53
							C1875.524,326.306,1874.838,326.993,1873.993,326.993z"/>
						<path style="fill:#FFFFFF;" d="M1868.888,314.294c-8.975,0-16.276,7.301-16.276,16.277c0,8.973,7.301,16.275,16.276,16.275
							c8.975,0,16.277-7.302,16.277-16.275C1885.165,321.595,1877.863,314.294,1868.888,314.294z M1878.778,334.532
							c-0.044,0.965-0.189,1.718-0.47,2.443c-0.535,1.381-1.634,2.48-3.016,3.013c-0.72,0.281-1.473,0.426-2.442,0.47
							c-1.012,0.047-1.35,0.059-3.962,0.059c-2.609,0-2.947-0.012-3.961-0.059c-0.968-0.045-1.72-0.189-2.443-0.47
							c-0.679-0.255-1.312-0.667-1.827-1.192c-0.525-0.513-0.927-1.131-1.188-1.826c-0.28-0.72-0.427-1.472-0.469-2.437
							c-0.048-1.03-0.059-1.372-0.059-3.961c0-2.591,0.011-2.933,0.059-3.963c0.042-0.967,0.188-1.719,0.47-2.442
							c0.259-0.691,0.661-1.306,1.193-1.828c0.509-0.518,1.142-0.932,1.826-1.189c0.72-0.279,1.474-0.423,2.439-0.467
							c1.012-0.047,1.35-0.059,3.96-0.059c2.61,0,2.948,0.012,3.962,0.059c0.966,0.044,1.719,0.188,2.442,0.468
							c0.681,0.256,1.315,0.67,1.828,1.194c0.518,0.508,0.932,1.142,1.189,1.827c0.28,0.721,0.425,1.473,0.469,2.438
							c0.047,1.033,0.058,1.377,0.058,3.963C1878.835,333.156,1878.825,333.499,1878.778,334.532z"/>
					</g>
				</g>
				<g>
					<path style="fill:#FFFFFF;" d="M1868.887,258.652c-8.987,0-16.275,7.288-16.275,16.277c0,8.987,7.287,16.275,16.275,16.275
						c8.988,0,16.277-7.288,16.277-16.275C1885.164,265.94,1877.875,258.652,1868.887,258.652L1868.887,258.652z M1876.32,271.343
						c0.006,0.16,0.01,0.321,0.01,0.482c0,4.937-3.758,10.629-10.629,10.629l0,0l0,0c-2.11,0-4.073-0.618-5.727-1.677
						c0.292,0.034,0.59,0.052,0.89,0.052c1.751,0,3.361-0.598,4.641-1.599c-1.636-0.031-3.015-1.111-3.491-2.595
						c0.227,0.044,0.461,0.068,0.703,0.068c0.34,0,0.671-0.045,0.985-0.131c-1.709-0.343-2.997-1.853-2.997-3.662
						c0-0.018,0-0.032,0.001-0.048c0.504,0.279,1.079,0.448,1.693,0.467c-1.005-0.67-1.663-1.814-1.663-3.11
						c0-0.684,0.185-1.325,0.506-1.878c1.842,2.261,4.596,3.747,7.7,3.903c-0.064-0.273-0.098-0.559-0.098-0.851
						c0-2.063,1.674-3.735,3.737-3.735c1.075,0,2.045,0.454,2.727,1.18c0.852-0.167,1.651-0.478,2.372-0.906
						c-0.28,0.872-0.871,1.604-1.643,2.066c0.756-0.091,1.476-0.291,2.145-0.588C1877.682,270.158,1877.048,270.815,1876.32,271.343
						L1876.32,271.343z M1876.32,271.343"/>
				</g>
				<g>
					<path style="fill:#FFFFFF;" d="M1866.861,219.246l5.294-3.048l-5.294-3.05V219.246z M1866.861,219.246"/>
					<path style="fill:#FFFFFF;" d="M1868.889,199.921c-8.988,0-16.277,7.288-16.277,16.277c0,8.986,7.289,16.275,16.277,16.275
						c8.987,0,16.276-7.289,16.276-16.275C1885.165,207.209,1877.876,199.921,1868.889,199.921L1868.889,199.921z M1879.058,216.213
						c0,0,0,3.301-0.419,4.893c-0.234,0.871-0.922,1.557-1.792,1.792c-1.592,0.419-7.958,0.419-7.958,0.419s-6.352,0-7.96-0.435
						c-0.871-0.234-1.557-0.922-1.792-1.793c-0.419-1.575-0.419-4.891-0.419-4.891s0-3.301,0.419-4.893
						c0.235-0.872,0.938-1.576,1.792-1.81c1.592-0.418,7.96-0.418,7.96-0.418s6.365,0,7.958,0.435
						c0.871,0.234,1.558,0.922,1.792,1.794C1879.076,212.897,1879.058,216.213,1879.058,216.213L1879.058,216.213z
						 M1879.058,216.213"/>
				</g>
				<g>
					<path style="fill:#FFFFFF;" d="M1868.889,145.338c-8.989,0-16.277,7.287-16.277,16.277c0,8.988,7.288,16.275,16.277,16.275
						c8.989,0,16.276-7.288,16.276-16.275C1885.165,152.624,1877.878,145.338,1868.889,145.338z M1873.865,153.811
						c0,0-4.232-0.614-4.232,2.115v2.73h3.821l-0.477,4.164h-3.344v10.85h-4.232v-10.85l-3.617-0.069v-4.095h3.549v-3.139
						c0,0-0.235-4.67,4.367-5.528c1.911-0.356,4.164,0.137,4.164,0.137V153.811z"/>
				</g>
			</g>
		</g>
		<path style="clip-path:url(#SVGID_00000174591121826209210960000012134385744099580560_);fill:#FFFFFF;" d="M907.925,226.811
			c0,0,0.763,9.198-8.33,13.767c0,0,8.023,1.041,9.17,12.611c0,0,0.685-10.181,9.015-13.189
			C917.78,240,911.048,239.576,907.925,226.811z"/>
		<path style="clip-path:url(#SVGID_00000174591121826209210960000012134385744099580560_);fill:#FFFFFF;" d="M1851.85,52.122
			c0,0,0.763,9.197-8.33,13.767c0,0,8.023,1.041,9.17,12.611c0,0,0.685-10.181,9.015-13.189
			C1861.705,65.311,1854.974,64.887,1851.85,52.122z"/>
		<path style="clip-path:url(#SVGID_00000174591121826209210960000012134385744099580560_);fill:#FFFFFF;" d="M1842.757,416.356
			c0,0,0.763,9.198-8.33,13.767c0,0,8.023,1.041,9.17,12.611c0,0,0.685-10.181,9.015-13.189
			C1852.613,429.545,1845.881,429.121,1842.757,416.356z"/>
		<path style="clip-path:url(#SVGID_00000174591121826209210960000012134385744099580560_);fill:#FFFFFF;" d="M665.71,30.962
			c0,0,0.763,9.198-8.33,13.767c0,0,8.023,1.041,9.17,12.611c0,0,0.685-10.181,9.015-13.189
			C675.566,44.151,668.834,43.728,665.71,30.962z"/>
		<path style="clip-path:url(#SVGID_00000174591121826209210960000012134385744099580560_);fill:#FFFFFF;" d="M478.823,321.53
			c0,0,0.702,8.46-7.662,12.663c0,0,7.38,0.958,8.435,11.599c0,0,0.63-9.364,8.292-12.131
			C487.888,333.661,481.696,333.271,478.823,321.53z"/>
		<path style="clip-path:url(#SVGID_00000174591121826209210960000012134385744099580560_);fill:#FFFFFF;" d="M1192.947,24.464
			c0,0,0.702,8.46-7.662,12.663c0,0,7.38,0.958,8.435,11.599c0,0,0.63-9.364,8.291-12.131
			C1202.012,36.595,1195.82,36.206,1192.947,24.464z"/>
		<path style="clip-path:url(#SVGID_00000174591121826209210960000012134385744099580560_);fill:#2B1919;" d="M849.684,349.247
			c-25.322,7.203-56.426-12.271-58.527-15.618c-2.141-3.409,11.695-7.78,33.406-1.629c17.681,5.01,24.16,13.025,25.957,15.828
			c4.179,1.228,10.232,3.518,14.806,7.344c-0.329-2.185-0.696-4.433-1.128-6.781c-4.446-24.167-21.903-40.434-29.796-46.703
			c-14.054,2.351-24.101-12.064-30.53-31.307c-6.589-19.72-15.149-21.552-16.608-29.153c-1.459-7.6,1.034-7.697,19.613,3.569
			c18.579,11.266,19.767,22.622,23.976,36.774c3.18,10.692,4.178,16.592,4.477,18.841c6.969,5.532,21.242,18.715,27.909,38.174
			c-1.009-7.982-3.013-16.264-4.531-21.849c-2.265-1.214-8.46-6.565-15.503-29.984c-8.882-29.535,0.529-53.036,6.835-55.693
			c6.306-2.658,8.201,26.981,15.035,46.608c5.951,17.089-2.587,34.301-4.896,38.469c2.069,7.589,5.081,20.291,5.267,30.506
			c0.101,0.488,0.214,0.969,0.305,1.463c0.84,4.568,1.448,8.773,1.968,12.797c1.369-6.154,4.091-12.472,6.041-16.515
			c-2.194-7.551,1.878-14.344,3.996-29.342c2.221-15.733,12.628-32.864,18.652-38.506c6.024-5.642,3.079,19.356-1.785,37.771
			c-3.933,14.891-14.913,26.091-18.972,29.834c-2.485,5.042-6.859,14.934-7.195,22.712c0.024,0.2,0.049,0.401,0.072,0.6
			c2.549,21.25,4.564,38.035,28.644,73.004c0.809,1.174,1.632,2.364,2.46,3.56c-2.108-9.177-2.011-19.569-1.543-26.762
			c-2.614-3.074-11.106-14.719-10.436-35.682c0.791-24.749-3.408-32.16-0.429-36.936c2.977-4.776,17.07,10.992,20.438,37.827
			c2.822,22.484-5.271,32.295-7.971,34.888c-0.526,8.281-0.576,20.857,2.672,30.592c5.863,8.409,12.079,17.179,18.14,25.73
			c26.305,37.113,53.505,75.487,60.985,96.484l-1.486,0.531c-6.126-17.195-25.747-46.354-47.194-76.87
			c-6.738,1.793-16.104-5.014-21.421-9.571c-9.724-0.391-48.99-22.488-54.303-30.165c-5.554-8.025,4.29-11.734,27.335,0.94
			c18.8,10.34,25.642,23.212,27.525,27.603c4.86,4.223,13.708,10.912,19.885,9.8c-4.171-5.927-8.403-11.899-12.613-17.838
			c-7.889-11.132-16.046-22.639-23.342-33.235c-8.922-12.957-14.835-23.436-18.883-32.58c-3.195-3.856-7.548-6.562-10.463-8.086
			c-12.788,6.975-47.229,1.716-51.275-3.911c-4.134-5.749,1.829-10.807,19.741-12.498c14.534-1.372,26.781,9.98,30.883,14.311
			c2.219,1.052,5.99,3.099,9.425,6.18c-5.534-13.808-6.851-24.717-8.341-37.126c-0.389-3.243-0.789-6.552-1.275-10.016
			C861.167,353.14,854.168,350.54,849.684,349.247z"/>
		
			<rect y="302.529" style="clip-path:url(#SVGID_00000174591121826209210960000012134385744099580560_);fill:#FFFFFF;" width="256.445" height="60.149"/>
		
			<line style="clip-path:url(#SVGID_00000174591121826209210960000012134385744099580560_);fill:none;stroke:#BA987D;stroke-width:4.3101;stroke-linecap:round;stroke-miterlimit:10;" x1="73.472" y1="346.687" x2="211.396" y2="346.687"/>
		<g style="clip-path:url(#SVGID_00000174591121826209210960000012134385744099580560_);">
			<path style="fill:none;stroke:#FFFFFF;stroke-width:1.8534;stroke-linecap:round;stroke-miterlimit:10;" d="M1067.595,50.503
				c0,0,6.364-32.875,34.285-62.848c27.921-29.973,32.052-58.008,32.052-58.008"/>
			<path style="fill:#FFFFFF;" d="M1071.415,37.596c0,0,8.783,15.494,5.247,32.062c-3.536,16.568,10.519,19.825,0.803,37.063
				c-9.716,17.238-10.348,31.33-13.904,24.406c-3.556-6.925-12.515-11.352-8.912-23.779c3.604-12.427,1.5-14.866-2.429-33.704
				C1048.291,54.805,1071.415,37.596,1071.415,37.596z"/>
			<path style="fill:#FFFFFF;" d="M1073.283,32.287c0,0-13.247,1.519-19.073,9.692c-5.826,8.172-10.08,23.752-27.554,24.089
				c-17.475,0.337-30.468,11.954-33.465,7.636c-2.997-4.318,2.122-8.414,19.042-24.09c16.92-15.675,19.769-8.49,32.371-17.352
				C1057.206,23.4,1073.283,32.287,1073.283,32.287z"/>
			<path style="fill:#FFFFFF;" d="M1074.168,30.369c0,0,28.063,1.691,39.125,20.339c11.062,18.648-0.722,19.375,1.96,32.648
				c2.682,13.273,9.867,18.056,2.775,16.251c-7.092-1.805-20.477,1.118-20.85-14.612c-0.373-15.73,8.617-21.855-2.329-28.668
				C1083.902,49.516,1090.461,38.79,1074.168,30.369z"/>
			<path style="fill:#FFFFFF;" d="M1084.776,10.07c0,0-10.071,12.305-28.222,3.929c-18.151-8.376-18.912,9.179-34.066,5.122
				c-15.153-4.057-16.401-5.807-15.973-7.371c0.428-1.564,9.885-8.062,21.928-15.713c12.044-7.652,16.084,7.129,24.833,4.708
				C1062.026-1.676,1075.562,10.295,1084.776,10.07z"/>
			<path style="fill:#FFFFFF;" d="M1086.53,7.311c0,0-0.172,13.984,11.463,19.94c11.635,5.956,34.27,28.786,37.773,29.466
				c11.423,2.216-2.905-8.973-6.349-19.955c-3.445-10.983-14.8-6.096-27.208-18.646C1089.801,5.564,1086.53,7.311,1086.53,7.311z"/>
			<path style="fill:#FFFFFF;" d="M1091.91-0.394c0,0,4.052,4.692,16.673,0.242c12.621-4.45,17.145,2.921,27.849,1.99
				c10.704-0.931,18.615-11.077,28.835-4.6c0,0,5.51,0.782-3.834,3.22c-9.345,2.439-19.566,23.317-34.281,15.765
				C1112.437,8.671,1097.335,11.909,1091.91-0.394z"/>
			<path style="fill:#FFFFFF;" d="M1089.582,2.81c0,0-12.385-3.649-12.795-16.754c-0.411-13.105-10.351-18.28-2.925-28.649
				c7.427-10.369,12.508-19.473,13.738-14.503c1.229,4.97-8.376,10.518-0.762,21.371C1094.452-24.873,1076.965-7.426,1089.582,2.81z
				"/>
		</g>
		<g style="clip-path:url(#SVGID_00000174591121826209210960000012134385744099580560_);">
			<path style="fill:none;stroke:#FFFFFF;stroke-width:1.8534;stroke-linecap:round;stroke-miterlimit:10;" d="M1739.456,421.626
				c0,0,29.502,15.841,49.83,51.404c20.328,35.563,45.871,47.834,45.871,47.834"/>
			<path style="fill:#FFFFFF;" d="M1750.647,429.107c0,0-17.404,3.785-32.174-4.512c-14.77-8.297-22.055,4.157-35.63-10.241
				c-13.575-14.397-26.843-19.186-19.175-20.525c7.668-1.339,14.557-8.579,25.353-1.447c10.796,7.132,13.749,5.847,32.905,7.691
				C1741.082,401.915,1750.647,429.107,1750.647,429.107z"/>
			<path style="fill:#FFFFFF;" d="M1755.161,432.468c0,0,2.484-13.101-3.59-21.091c-6.073-7.99-19.686-16.679-14.818-33.466
				c4.868-16.786-2.366-32.643,2.648-34.223c5.014-1.579,7.405,4.525,17.347,25.338c9.943,20.813,2.235,21.399,6.954,36.064
				C1768.422,419.755,1755.161,432.468,1755.161,432.468z"/>
			<path style="fill:#FFFFFF;" d="M1756.73,433.882c0,0-9.95,26.294-31.042,31.319c-21.092,5.024-18.286-6.444-31.757-7.825
				c-13.47-1.382-20.172,4.059-16.342-2.177c3.83-6.236,5.014-19.885,20.145-15.57c15.131,4.315,18.309,14.719,28.066,6.29
				C1735.556,437.49,1743.85,446.938,1756.73,433.882z"/>
			<path style="fill:#FFFFFF;" d="M1772.962,450.039c0,0-8.758-13.271,4.631-28.115c13.389-14.844-3.148-20.785,5.227-34.05
				c8.375-13.264,10.416-13.936,11.782-13.063c1.366,0.873,4.762,11.833,8.491,25.605c3.73,13.773-11.584,13.241-11.871,22.315
				C1790.935,431.805,1775.484,441.175,1772.962,450.039z"/>
			<path style="fill:#FFFFFF;" d="M1775.077,452.534c0,0-13.302-4.318-22.445,5.023s-37.666,24.174-39.355,27.317
				c-5.509,10.25,9.43-0.109,20.941-0.136c11.51-0.027,10.216-12.322,25.885-20.442
				C1775.773,456.176,1775.077,452.534,1775.077,452.534z"/>
			<path style="fill:#FFFFFF;" d="M1780.836,459.96c0,0-5.684,2.476-5.183,15.849c0.501,13.373-7.882,15.504-10.171,26.001
				c-2.29,10.498,5.049,21.065-4.172,28.9c0,0-2.383,5.029-1.936-4.618c0.446-9.648-16.453-25.608-4.872-37.416
				C1766.083,476.868,1767.476,461.486,1780.836,459.96z"/>
			<path style="fill:#FFFFFF;" d="M1778.467,456.785c0,0,7.163-10.742,19.799-7.242c12.636,3.5,20.529-4.455,28.225,5.716
				c7.696,10.172,14.879,17.728,9.768,17.425c-5.111-0.303-7.556-11.122-20.18-7.074
				C1803.455,469.658,1791.989,447.778,1778.467,456.785z"/>
		</g>
		<g style="clip-path:url(#SVGID_00000174591121826209210960000012134385744099580560_);">
			<path style="fill:none;stroke:#FFFFFF;stroke-width:1.8534;stroke-linecap:round;stroke-miterlimit:10;" d="M244.337,6.186
				c0,0-29.502-15.841-49.83-51.404c-20.328-35.563-45.871-47.834-45.871-47.834"/>
			<path style="fill:#FFFFFF;" d="M233.146-1.295c0,0,17.404-3.785,32.174,4.512c14.77,8.297,22.055-4.156,35.63,10.241
				c13.575,14.398,26.843,19.186,19.175,20.525c-7.668,1.339-14.557,8.579-25.353,1.447c-10.796-7.132-13.749-5.847-32.905-7.691
				C242.711,25.896,233.146-1.295,233.146-1.295z"/>
			<path style="fill:#FFFFFF;" d="M228.632-4.656c0,0-2.484,13.101,3.589,21.091c6.073,7.99,19.686,16.679,14.819,33.465
				c-4.868,16.787,2.366,32.643-2.648,34.223c-5.014,1.579-7.404-4.525-17.347-25.338c-9.943-20.812-2.235-21.399-6.954-36.064
				C215.371,8.056,228.632-4.656,228.632-4.656z"/>
			<path style="fill:#FFFFFF;" d="M227.063-6.071c0,0,9.95-26.294,31.042-31.319c21.092-5.024,18.287,6.443,31.757,7.825
				c13.47,1.381,20.172-4.059,16.342,2.177c-3.83,6.236-5.014,19.885-20.145,15.57c-15.131-4.315-18.309-14.72-28.066-6.29
				C248.237-9.679,239.943-19.127,227.063-6.071z"/>
			<path style="fill:#FFFFFF;" d="M210.831-22.228c0,0,8.758,13.271-4.63,28.115s3.148,20.785-5.227,34.05
				C192.599,53.202,190.557,53.873,189.192,53c-1.366-0.873-4.762-11.833-8.491-25.605c-3.73-13.773,11.584-13.241,11.871-22.314
				C192.858-3.993,208.309-13.363,210.831-22.228z"/>
			<path style="fill:#FFFFFF;" d="M208.717-24.723c0,0,13.302,4.318,22.445-5.023c9.143-9.341,37.666-24.174,39.355-27.317
				c5.509-10.25-9.43,0.108-20.941,0.136c-11.51,0.027-10.216,12.322-25.885,20.442C208.021-28.365,208.717-24.723,208.717-24.723z"
				/>
			<path style="fill:#FFFFFF;" d="M202.958-32.149c0,0,5.684-2.476,5.183-15.849c-0.501-13.373,7.882-15.504,10.171-26.001
				c2.29-10.498-5.049-21.065,4.172-28.9c0,0,2.383-5.03,1.936,4.618c-0.446,9.647,16.454,25.608,4.872,37.416
				C217.71-49.057,216.317-33.674,202.958-32.149z"/>
			<path style="fill:#FFFFFF;" d="M205.326-28.974c0,0-7.163,10.743-19.799,7.242c-12.636-3.5-20.529,4.456-28.225-5.716
				s-14.879-17.727-9.768-17.425c5.111,0.303,7.556,11.122,20.18,7.074C180.339-41.846,191.805-19.967,205.326-28.974z"/>
		</g>
		<path style="clip-path:url(#SVGID_00000174591121826209210960000012134385744099580560_);fill:#FFFFFF;" d="M830.617,480
			c0,0-31.135-83.116-78.515-74.82c-47.379,8.295-48.733,50.26-75.807,46.199c-27.074-4.061-65.339-42.217-98.324-26.523
			C544.987,440.549,531.45,480,531.45,480H830.617z"/>
		<g style="clip-path:url(#SVGID_00000174591121826209210960000012134385744099580560_);">
			<g>
				<path style="fill:#2B1919;" d="M610.036,392.413c-2.866-4.864-9.77-5.924-14.012-2.198c-2.581,2.268-4.175,5.485-1.549,9.722
					c5.906,9.534,15.839-0.927,16.399-4.533C611.014,394.501,610.654,393.462,610.036,392.413z"/>
				<path style="fill:#2B1919;" d="M574.288,383.263c0,0-12.496,6.474-2.078,15.373
					C580.011,405.299,589.164,376.647,574.288,383.263z"/>
				<path style="fill:#2B1919;" d="M588.59,407.971c0,0-9.566-3.661-13.157,1.629c-3.591,5.29,7.98,13.878,13.56,8.732
					C594.573,413.186,588.59,407.971,588.59,407.971z"/>
				<path style="fill:#2B1919;" d="M623.049,414.872c-3.171-4.327-8.809-6.449-13.793-4.465c-2.259,0.899-3.879,2.544-3.133,5.522
					c1.916,7.657,12.548,10.538,17.756,6.73C626.403,420.811,625.081,417.645,623.049,414.872z"/>
				<path style="fill:#2B1919;" d="M591.58,427.096c0,0-10.279,2.913-4.138,10.582c6.141,7.668,15.649,3.912,15.473-2.886
					C602.738,427.994,591.58,427.096,591.58,427.096z"/>
				<path style="fill:#2B1919;" d="M561.869,424.567c0,0-12.145,6.708-3.138,11.738c9.007,5.031,17.028-10.23,11.945-13.538
					C565.593,419.46,561.869,424.567,561.869,424.567z"/>
				<path style="fill:#2B1919;" d="M559.78,402.397c-4.219-1.639-9.029-0.617-12.527,2.256c-2.828,2.323-5.085,5.446-1.915,8.239
					c5.991,5.277,16.825,1.878,18.263-4.899C564.231,405.029,562.23,403.349,559.78,402.397z"/>
				<path style="fill:#2B1919;" d="M535.206,422.352c0,0-8.684,4.883-1.993,10.389c6.691,5.506,15.928-1.727,14.089-6.964
					C544.808,418.676,535.206,422.352,535.206,422.352z"/>
				<path style="fill:#2B1919;" d="M550.928,447.493c0,0-12.715,5.199-2.904,10.601c9.811,5.402,15.712-3.287,12.15-8.886
					C556.614,443.61,550.928,447.493,550.928,447.493z"/>
				<path style="fill:#2B1919;" d="M574.938,444.063c0,0-7.983,10.408,2.308,12.698C587.52,459.046,584.298,438.816,574.938,444.063
					z"/>
			</g>
		</g>
	</g>
</g>
<g id="PHOTOS_1_">
	<g>
		<defs>
			
				<rect id="SVGID_00000176044699349748762260000012108924418167823022_" x="1171.112" y="72.031" width="584.819" height="335.939"/>
		</defs>
		<clipPath id="SVGID_00000078735756130717655600000001376129882888355515_">
			<use xlink:href="#SVGID_00000176044699349748762260000012108924418167823022_"  style="overflow:visible;"/>
		</clipPath>
		<g style="clip-path:url(#SVGID_00000078735756130717655600000001376129882888355515_);">
			
				<rect x="1162.245" y="-94.701" style="fill:#FFFFFF;stroke:#1D1D1B;stroke-width:0.3315;stroke-miterlimit:10;" width="602.551" height="602.551"/>
			<rect x="1162.245" y="-94.701" style="fill:#8C8C8C;" width="50.213" height="50.213"/>
			<rect x="1212.458" y="-44.488" style="fill:#8C8C8C;" width="50.213" height="50.213"/>
			<rect x="1262.671" y="-94.701" style="fill:#8C8C8C;" width="50.212" height="50.213"/>
			<rect x="1312.883" y="-44.488" style="fill:#8C8C8C;" width="50.213" height="50.213"/>
			<rect x="1363.096" y="-94.701" style="fill:#8C8C8C;" width="50.212" height="50.213"/>
			<rect x="1413.308" y="-44.488" style="fill:#8C8C8C;" width="50.213" height="50.213"/>
			<rect x="1463.521" y="-94.701" style="fill:#8C8C8C;" width="50.213" height="50.213"/>
			<rect x="1513.734" y="-44.488" style="fill:#8C8C8C;" width="50.212" height="50.213"/>
			<rect x="1563.946" y="-94.701" style="fill:#8C8C8C;" width="50.213" height="50.213"/>
			<rect x="1614.159" y="-44.488" style="fill:#8C8C8C;" width="50.213" height="50.213"/>
			<rect x="1664.371" y="-94.701" style="fill:#8C8C8C;" width="50.213" height="50.213"/>
			<rect x="1714.584" y="-44.488" style="fill:#8C8C8C;" width="50.213" height="50.213"/>
			<rect x="1162.245" y="5.724" style="fill:#8C8C8C;" width="50.213" height="50.213"/>
			<rect x="1212.458" y="55.937" style="fill:#8C8C8C;" width="50.213" height="50.213"/>
			<rect x="1262.671" y="5.724" style="fill:#8C8C8C;" width="50.212" height="50.213"/>
			<rect x="1312.883" y="55.937" style="fill:#8C8C8C;" width="50.213" height="50.213"/>
			<rect x="1363.096" y="5.724" style="fill:#8C8C8C;" width="50.212" height="50.213"/>
			<rect x="1413.308" y="55.937" style="fill:#8C8C8C;" width="50.213" height="50.213"/>
			<rect x="1463.521" y="5.724" style="fill:#8C8C8C;" width="50.213" height="50.213"/>
			<rect x="1513.734" y="55.937" style="fill:#8C8C8C;" width="50.212" height="50.213"/>
			<rect x="1563.946" y="5.724" style="fill:#8C8C8C;" width="50.213" height="50.213"/>
			<rect x="1614.159" y="55.937" style="fill:#8C8C8C;" width="50.213" height="50.213"/>
			<rect x="1664.371" y="5.724" style="fill:#8C8C8C;" width="50.213" height="50.213"/>
			<rect x="1714.584" y="55.937" style="fill:#8C8C8C;" width="50.213" height="50.213"/>
			<rect x="1162.245" y="106.149" style="fill:#8C8C8C;" width="50.213" height="50.213"/>
			<rect x="1212.458" y="156.362" style="fill:#8C8C8C;" width="50.213" height="50.213"/>
			<rect x="1262.671" y="106.149" style="fill:#8C8C8C;" width="50.212" height="50.213"/>
			<rect x="1312.883" y="156.362" style="fill:#8C8C8C;" width="50.213" height="50.213"/>
			<rect x="1363.096" y="106.149" style="fill:#8C8C8C;" width="50.212" height="50.213"/>
			<rect x="1413.308" y="156.362" style="fill:#8C8C8C;" width="50.213" height="50.213"/>
			<rect x="1463.521" y="106.149" style="fill:#8C8C8C;" width="50.213" height="50.213"/>
			<rect x="1513.734" y="156.362" style="fill:#8C8C8C;" width="50.212" height="50.213"/>
			<rect x="1563.946" y="106.149" style="fill:#8C8C8C;" width="50.213" height="50.213"/>
			<rect x="1614.159" y="156.362" style="fill:#8C8C8C;" width="50.213" height="50.213"/>
			<rect x="1664.371" y="106.149" style="fill:#8C8C8C;" width="50.213" height="50.213"/>
			<rect x="1714.584" y="156.362" style="fill:#8C8C8C;" width="50.213" height="50.213"/>
			<rect x="1162.245" y="206.575" style="fill:#8C8C8C;" width="50.213" height="50.212"/>
			<rect x="1212.458" y="256.787" style="fill:#8C8C8C;" width="50.213" height="50.213"/>
			<rect x="1262.671" y="206.575" style="fill:#8C8C8C;" width="50.212" height="50.212"/>
			<rect x="1312.883" y="256.787" style="fill:#8C8C8C;" width="50.213" height="50.213"/>
			<rect x="1363.096" y="206.575" style="fill:#8C8C8C;" width="50.212" height="50.212"/>
			<rect x="1413.308" y="256.787" style="fill:#8C8C8C;" width="50.213" height="50.213"/>
			<rect x="1463.521" y="206.575" style="fill:#8C8C8C;" width="50.213" height="50.212"/>
			<rect x="1513.734" y="256.787" style="fill:#8C8C8C;" width="50.212" height="50.213"/>
			<rect x="1563.946" y="206.575" style="fill:#8C8C8C;" width="50.213" height="50.212"/>
			<rect x="1614.159" y="256.787" style="fill:#8C8C8C;" width="50.213" height="50.213"/>
			<rect x="1664.371" y="206.575" style="fill:#8C8C8C;" width="50.213" height="50.212"/>
			<rect x="1714.584" y="256.787" style="fill:#8C8C8C;" width="50.213" height="50.213"/>
			<rect x="1162.245" y="307" style="fill:#8C8C8C;" width="50.213" height="50.212"/>
			<rect x="1212.458" y="357.212" style="fill:#8C8C8C;" width="50.213" height="50.213"/>
			<rect x="1262.671" y="307" style="fill:#8C8C8C;" width="50.212" height="50.212"/>
			<rect x="1312.883" y="357.212" style="fill:#8C8C8C;" width="50.213" height="50.213"/>
			<rect x="1363.096" y="307" style="fill:#8C8C8C;" width="50.212" height="50.212"/>
			<rect x="1413.308" y="357.212" style="fill:#8C8C8C;" width="50.213" height="50.213"/>
			<rect x="1463.521" y="307" style="fill:#8C8C8C;" width="50.213" height="50.212"/>
			<rect x="1513.734" y="357.212" style="fill:#8C8C8C;" width="50.212" height="50.213"/>
			<rect x="1563.946" y="307" style="fill:#8C8C8C;" width="50.213" height="50.212"/>
			<rect x="1614.159" y="357.212" style="fill:#8C8C8C;" width="50.213" height="50.213"/>
			<rect x="1664.371" y="307" style="fill:#8C8C8C;" width="50.213" height="50.212"/>
			<rect x="1714.584" y="357.212" style="fill:#8C8C8C;" width="50.213" height="50.213"/>
			<rect x="1162.245" y="407.425" style="fill:#8C8C8C;" width="50.213" height="50.213"/>
			<rect x="1212.458" y="457.638" style="fill:#8C8C8C;" width="50.213" height="50.212"/>
			<rect x="1262.671" y="407.425" style="fill:#8C8C8C;" width="50.212" height="50.213"/>
			<rect x="1312.883" y="457.638" style="fill:#8C8C8C;" width="50.213" height="50.212"/>
			<rect x="1363.096" y="407.425" style="fill:#8C8C8C;" width="50.212" height="50.213"/>
			<rect x="1413.308" y="457.638" style="fill:#8C8C8C;" width="50.213" height="50.212"/>
			<rect x="1463.521" y="407.425" style="fill:#8C8C8C;" width="50.213" height="50.213"/>
			<rect x="1513.734" y="457.638" style="fill:#8C8C8C;" width="50.212" height="50.212"/>
			<rect x="1563.946" y="407.425" style="fill:#8C8C8C;" width="50.213" height="50.213"/>
			<rect x="1614.159" y="457.638" style="fill:#8C8C8C;" width="50.213" height="50.212"/>
			<rect x="1664.371" y="407.425" style="fill:#8C8C8C;" width="50.213" height="50.213"/>
			<rect x="1714.584" y="457.638" style="fill:#8C8C8C;" width="50.213" height="50.212"/>
		</g>
	</g>
</g>
<g id="TEXTS">
	<g>
		
			<text transform="matrix(1 0 0 1 109.4043 188.4131)" style="fill:#2B1919; font-family:'ZenAntique-Regular'; font-size:117.0754px;">Fashion Sale</text>
	</g>
	
		<text transform="matrix(1 0 0 1 1305.4385 449.5371)" style="fill:#FFFFFF; font-family:'Poppins-Regular'; font-size:32.8532px; letter-spacing:6;">20% Discount</text>
	<g>
		<text transform="matrix(1 0 0 1 76 408.4697)" style="fill:#FFFFFF; font-family:'Poppins-Regular'; font-size:31.3446px;">www.Boutiqueshop.com</text>
	</g>
	<g>
		
			<text transform="matrix(1 0 0 1 73.4678 335.8936)" style="fill:#2B1919; font-family:'ZenAntique-Regular'; font-size:27.1884px;">Read more</text>
	</g>
	<text transform="matrix(1 0 0 1 73.4668 236.46)"><tspan x="0" y="0" style="fill:#FFFFFF; font-family:'Poppins-Regular'; font-size:32.4176px;">Lunity unic tu goun lourentd tiune</tspan><tspan x="0" y="39.813" style="fill:#FFFFFF; font-family:'Poppins-Regular'; font-size:32.4176px;">raynou tuint lije.</tspan></text>
</g>
</svg>
